<svg width="128" height="70" viewBox="0 0 128 70" fill="none" xmlns="http://www.w3.org/2000/svg">
<path d="M65.25 7.06665C66.9166 5.86665 68.85 5.26665 71.0333 5.26665C72.2333 5.26665 73.55 5.58332 74.9833 6.24999C76.4166 6.89999 77.55 7.66665 78.3833 8.54999C80.1 10.6833 80.8166 13.1667 80.5666 16C80.3 18.8333 79.3666 21.05 77.75 22.6167L65.1 35.2667C64.7833 35.5833 64.3833 35.7333 63.9166 35.7333C63.45 35.7333 63.0666 35.5833 62.75 35.2667C62.596 35.1148 62.4751 34.9328 62.3948 34.732C62.3145 34.5313 62.2766 34.3161 62.2833 34.1C62.2833 33.6333 62.4333 33.2333 62.75 32.9167L70.4 25.2667C70.8166 24.9 70.8166 24.5167 70.4 24.1C69.9833 23.6833 69.6 23.6833 69.2333 24.1L61.5833 31.75C61.4291 31.9054 61.2442 32.0271 61.0406 32.1074C60.8369 32.1877 60.6188 32.2249 60.4 32.2167C59.9333 32.2167 59.55 32.0667 59.2333 31.75C59.0794 31.5981 58.9585 31.4161 58.8782 31.2154C58.7979 31.0146 58.7599 30.7994 58.7666 30.5833C58.7666 30.1167 58.9166 29.7167 59.2333 29.4L66.8833 21.75C67.3333 21.3333 67.3333 20.9167 66.8833 20.5C66.5 20.0833 66.1333 20.0833 65.7166 20.5L58.0666 28.2333C57.9106 28.3863 57.7255 28.5064 57.5223 28.5866C57.319 28.6667 57.1017 28.7053 56.8833 28.7C56.4166 28.7 56.0166 28.55 55.6666 28.2333C55.3333 27.9167 55.1666 27.5333 55.1666 27.0667C55.1666 26.6 55.35 26.1833 55.7166 25.8167L63.3833 18.15C63.8 17.7333 63.8 17.35 63.3833 16.9833C62.9666 16.6167 62.5666 16.6167 62.2 16.9833L54.4666 24.6667C54.1 25 53.7166 25.1833 53.3 25.1833C52.8333 25.1833 52.4333 25.0167 52.1333 24.6667C51.8166 24.3333 51.65 23.9333 51.65 23.4667C51.65 23 51.8166 22.6167 52.1333 22.3C57.2333 17.1667 60.3833 14.0667 61.5833 12.9167L67.5166 18.7833C68.1666 19.4 68.9166 19.7167 69.8333 19.7167C71 19.7167 71.9166 19.25 72.6 18.3167C73.0666 17.6333 73.2333 16.8833 73.1 16.05C72.9666 15.2167 72.6166 14.5167 72.05 13.9333L65.25 7.06665ZM68.6833 17.6167L61.5833 10.5L49.7833 22.3C48.3833 20.8833 47.5833 18.7167 47.4 15.7667C47.2166 12.8333 48.0166 10.2833 49.7833 8.14999C51.7666 6.18332 54.1333 5.18332 56.8833 5.18332C59.65 5.18332 62 6.18332 63.9166 8.14999L71.0333 15.2667C71.35 15.5833 71.5 15.9667 71.5 16.4333C71.5 16.9 71.35 17.3 71.0333 17.6167C70.7166 17.9167 70.3333 18.0833 69.8333 18.0833C69.3833 18.0833 69 17.9167 68.6833 17.6167Z" fill="#3A40D8"/>
<path d="M8.54479 48.616C9.51279 48.616 10.3048 48.7627 10.9208 49.056C11.5515 49.3347 12.1088 49.6647 12.5928 50.046C12.8861 50.266 13.1061 50.2953 13.2528 50.134C13.4141 49.958 13.5241 49.5547 13.5828 48.924H14.0888C14.0595 49.4813 14.0375 50.1633 14.0228 50.97C14.0081 51.7767 14.0008 52.84 14.0008 54.16H13.4948C13.4068 53.5 13.3115 52.95 13.2088 52.51C13.1061 52.0553 12.9595 51.6667 12.7688 51.344C12.5928 51.0213 12.3435 50.7133 12.0208 50.42C11.6248 49.98 11.1481 49.6573 10.5908 49.452C10.0481 49.232 9.47612 49.122 8.87479 49.122C8.11212 49.122 7.44479 49.3273 6.87279 49.738C6.31546 50.134 5.84612 50.684 5.46479 51.388C5.09812 52.0773 4.81946 52.884 4.62879 53.808C4.45279 54.732 4.36479 55.7147 4.36479 56.756C4.36479 57.8267 4.46012 58.824 4.65079 59.748C4.85612 60.6573 5.14946 61.4567 5.53079 62.146C5.92679 62.8207 6.41079 63.3487 6.98279 63.73C7.56946 64.1113 8.24412 64.302 9.00679 64.302C9.54946 64.302 10.1068 64.1993 10.6788 63.994C11.2508 63.7887 11.7201 63.4733 12.0868 63.048C12.5708 62.608 12.9008 62.0873 13.0768 61.486C13.2528 60.87 13.3921 60.056 13.4948 59.044H14.0008C14.0008 60.4227 14.0081 61.5373 14.0228 62.388C14.0375 63.224 14.0595 63.928 14.0888 64.5H13.5828C13.5241 63.8693 13.4215 63.4733 13.2748 63.312C13.1428 63.1507 12.9155 63.1727 12.5928 63.378C12.0501 63.7593 11.4708 64.0967 10.8548 64.39C10.2535 64.6687 9.47612 64.808 8.52279 64.808C7.02679 64.808 5.71412 64.4927 4.58479 63.862C3.45546 63.2313 2.57546 62.322 1.94479 61.134C1.32879 59.946 1.02079 58.516 1.02079 56.844C1.02079 55.2013 1.34346 53.764 1.98879 52.532C2.63412 51.3 3.52146 50.3393 4.65079 49.65C5.78012 48.9607 7.07812 48.616 8.54479 48.616ZM20.0991 47.274V55.062C20.4658 54.2407 20.9718 53.6613 21.6171 53.324C22.2771 52.9867 22.9884 52.818 23.7511 52.818C24.3524 52.818 24.8438 52.8987 25.2251 53.06C25.6064 53.2213 25.9144 53.4267 26.1491 53.676C26.3984 53.9547 26.5744 54.314 26.6771 54.754C26.7944 55.194 26.8531 55.788 26.8531 56.536V62.454C26.8531 63.07 26.9631 63.488 27.1831 63.708C27.4178 63.928 27.8064 64.038 28.3491 64.038V64.5C28.0851 64.4853 27.6818 64.4707 27.1391 64.456C26.5964 64.4267 26.0611 64.412 25.5331 64.412C25.0051 64.412 24.4844 64.4267 23.9711 64.456C23.4578 64.4707 23.0691 64.4853 22.8051 64.5V64.038C23.2744 64.038 23.6044 63.928 23.7951 63.708C23.9858 63.488 24.0811 63.07 24.0811 62.454V55.788C24.0811 55.392 24.0444 55.04 23.9711 54.732C23.8978 54.4093 23.7511 54.16 23.5311 53.984C23.3258 53.7933 23.0104 53.698 22.5851 53.698C22.1158 53.698 21.6904 53.83 21.3091 54.094C20.9424 54.3433 20.6491 54.7027 20.4291 55.172C20.2091 55.6267 20.0991 56.1473 20.0991 56.734V62.454C20.0991 63.07 20.1944 63.488 20.3851 63.708C20.5904 63.928 20.9204 64.038 21.3751 64.038V64.5C21.1258 64.4853 20.7518 64.4707 20.2531 64.456C19.7691 64.4267 19.2631 64.412 18.7351 64.412C18.2071 64.412 17.6571 64.4267 17.0851 64.456C16.5278 64.4707 16.1098 64.4853 15.8311 64.5V64.038C16.3738 64.038 16.7551 63.928 16.9751 63.708C17.2098 63.488 17.3271 63.07 17.3271 62.454V49.914C17.3271 49.254 17.2171 48.77 16.9971 48.462C16.7918 48.1393 16.4031 47.978 15.8311 47.978V47.516C16.3004 47.56 16.7551 47.582 17.1951 47.582C17.7524 47.582 18.2731 47.56 18.7571 47.516C19.2411 47.4573 19.6884 47.3767 20.0991 47.274ZM31.9475 47.516C32.4755 47.516 32.9081 47.6627 33.2455 47.956C33.5828 48.2493 33.7515 48.638 33.7515 49.122C33.7515 49.606 33.5828 49.9947 33.2455 50.288C32.9081 50.5813 32.4755 50.728 31.9475 50.728C31.4195 50.728 30.9868 50.5813 30.6495 50.288C30.3121 49.9947 30.1435 49.606 30.1435 49.122C30.1435 48.638 30.3121 48.2493 30.6495 47.956C30.9868 47.6627 31.4195 47.516 31.9475 47.516ZM33.4875 52.884V62.454C33.4875 63.07 33.5975 63.488 33.8175 63.708C34.0521 63.928 34.4408 64.038 34.9835 64.038V64.5C34.7195 64.4853 34.3161 64.4707 33.7735 64.456C33.2308 64.4267 32.6808 64.412 32.1235 64.412C31.5808 64.412 31.0308 64.4267 30.4735 64.456C29.9161 64.4707 29.4981 64.4853 29.2195 64.5V64.038C29.7621 64.038 30.1435 63.928 30.3635 63.708C30.5981 63.488 30.7155 63.07 30.7155 62.454V55.546C30.7155 54.8713 30.6055 54.38 30.3855 54.072C30.1801 53.7493 29.7915 53.588 29.2195 53.588V53.126C29.6888 53.17 30.1435 53.192 30.5835 53.192C31.1261 53.192 31.6395 53.17 32.1235 53.126C32.6221 53.0673 33.0768 52.9867 33.4875 52.884ZM39.045 64.654C38.4144 64.654 37.879 64.5367 37.439 64.302C36.999 64.0527 36.669 63.7227 36.449 63.312C36.229 62.8867 36.119 62.4173 36.119 61.904C36.119 61.2733 36.2657 60.76 36.559 60.364C36.8524 59.9533 37.2264 59.6307 37.681 59.396C38.1504 59.1467 38.6417 58.9413 39.155 58.78C39.6684 58.604 40.1524 58.4427 40.607 58.296C41.0617 58.1347 41.4357 57.9513 41.729 57.746C42.0224 57.5407 42.169 57.2693 42.169 56.932V55.326C42.169 54.8567 42.0957 54.4753 41.949 54.182C41.817 53.874 41.6117 53.6467 41.333 53.5C41.069 53.3387 40.7317 53.258 40.321 53.258C40.013 53.258 39.6904 53.302 39.353 53.39C39.0157 53.478 38.737 53.6467 38.517 53.896C38.8984 53.9987 39.1917 54.1893 39.397 54.468C39.617 54.7467 39.727 55.084 39.727 55.48C39.727 55.9347 39.573 56.294 39.265 56.558C38.9717 56.8073 38.5977 56.932 38.143 56.932C37.659 56.932 37.2924 56.778 37.043 56.47C36.7937 56.162 36.669 55.8027 36.669 55.392C36.669 54.9813 36.7717 54.644 36.977 54.38C37.1824 54.1013 37.4684 53.852 37.835 53.632C38.2017 53.3827 38.671 53.1847 39.243 53.038C39.815 52.8913 40.4384 52.818 41.113 52.818C41.7584 52.818 42.3304 52.8913 42.829 53.038C43.3277 53.17 43.753 53.412 44.105 53.764C44.457 54.1013 44.6844 54.5193 44.787 55.018C44.8897 55.5167 44.941 56.1253 44.941 56.844V62.872C44.941 63.2387 44.985 63.5027 45.073 63.664C45.161 63.8107 45.3004 63.884 45.491 63.884C45.6377 63.884 45.777 63.8473 45.909 63.774C46.041 63.7007 46.1877 63.598 46.349 63.466L46.591 63.84C46.2684 64.0893 45.931 64.2873 45.579 64.434C45.227 64.5807 44.8017 64.654 44.303 64.654C43.7897 64.654 43.379 64.5807 43.071 64.434C42.7777 64.2873 42.5577 64.0747 42.411 63.796C42.279 63.5173 42.2057 63.1873 42.191 62.806C41.839 63.3927 41.4064 63.8473 40.893 64.17C40.3797 64.4927 39.7637 64.654 39.045 64.654ZM40.365 63.422C40.717 63.422 41.0397 63.3267 41.333 63.136C41.641 62.9453 41.9197 62.6593 42.169 62.278V57.834C42.0224 58.054 41.8097 58.252 41.531 58.428C41.267 58.604 40.981 58.78 40.673 58.956C40.365 59.132 40.0717 59.3373 39.793 59.572C39.529 59.792 39.3017 60.0707 39.111 60.408C38.935 60.7307 38.847 61.1487 38.847 61.662C38.847 62.234 38.9864 62.674 39.265 62.982C39.5437 63.2753 39.9104 63.422 40.365 63.422ZM54.5274 52.818C54.982 52.818 55.356 52.9133 55.6494 53.104C55.9574 53.2947 56.1847 53.5367 56.3314 53.83C56.478 54.1233 56.5514 54.4313 56.5514 54.754C56.5514 55.238 56.4047 55.6413 56.1114 55.964C55.8327 56.2867 55.4587 56.448 54.9894 56.448C54.5494 56.448 54.19 56.3307 53.9114 56.096C53.6327 55.8613 53.4934 55.5387 53.4934 55.128C53.4934 54.7613 53.5814 54.4533 53.7574 54.204C53.948 53.9547 54.1607 53.7567 54.3954 53.61C54.234 53.522 54.0507 53.4927 53.8454 53.522C53.4934 53.5513 53.1707 53.676 52.8774 53.896C52.584 54.116 52.3347 54.3873 52.1294 54.71C51.924 55.0327 51.7627 55.3773 51.6454 55.744C51.5427 56.1107 51.4914 56.4627 51.4914 56.8V62.234C51.4914 62.9527 51.6747 63.4367 52.0414 63.686C52.408 63.9207 52.9434 64.038 53.6474 64.038V64.5C53.31 64.4853 52.8187 64.4707 52.1734 64.456C51.5427 64.4267 50.8827 64.412 50.1934 64.412C49.6214 64.412 49.0494 64.4267 48.4774 64.456C47.92 64.4707 47.502 64.4853 47.2234 64.5V64.038C47.766 64.038 48.1474 63.928 48.3674 63.708C48.602 63.488 48.7194 63.07 48.7194 62.454V55.524C48.7194 54.864 48.6094 54.38 48.3894 54.072C48.184 53.7493 47.7954 53.588 47.2234 53.588V53.126C47.6927 53.17 48.1474 53.192 48.5874 53.192C49.13 53.192 49.6434 53.17 50.1274 53.126C50.626 53.0673 51.0807 52.9867 51.4914 52.884V55.172C51.6674 54.7613 51.8947 54.38 52.1734 54.028C52.4667 53.676 52.8114 53.39 53.2074 53.17C53.618 52.9353 54.058 52.818 54.5274 52.818ZM60.049 47.516C60.577 47.516 61.0097 47.6627 61.347 47.956C61.6844 48.2493 61.853 48.638 61.853 49.122C61.853 49.606 61.6844 49.9947 61.347 50.288C61.0097 50.5813 60.577 50.728 60.049 50.728C59.521 50.728 59.0884 50.5813 58.751 50.288C58.4137 49.9947 58.245 49.606 58.245 49.122C58.245 48.638 58.4137 48.2493 58.751 47.956C59.0884 47.6627 59.521 47.516 60.049 47.516ZM61.589 52.884V62.454C61.589 63.07 61.699 63.488 61.919 63.708C62.1537 63.928 62.5424 64.038 63.085 64.038V64.5C62.821 64.4853 62.4177 64.4707 61.875 64.456C61.3324 64.4267 60.7824 64.412 60.225 64.412C59.6824 64.412 59.1324 64.4267 58.575 64.456C58.0177 64.4707 57.5997 64.4853 57.321 64.5V64.038C57.8637 64.038 58.245 63.928 58.465 63.708C58.6997 63.488 58.817 63.07 58.817 62.454V55.546C58.817 54.8713 58.707 54.38 58.487 54.072C58.2817 53.7493 57.893 53.588 57.321 53.588V53.126C57.7904 53.17 58.245 53.192 58.685 53.192C59.2277 53.192 59.741 53.17 60.225 53.126C60.7237 53.0673 61.1784 52.9867 61.589 52.884ZM68.2466 49.518V53.148H71.0626V53.588H68.2466V62.344C68.2466 62.872 68.3419 63.246 68.5326 63.466C68.7233 63.686 68.9946 63.796 69.3466 63.796C69.6839 63.796 69.9919 63.6713 70.2706 63.422C70.5493 63.158 70.7986 62.7253 71.0186 62.124L71.4146 62.3C71.1946 63.0187 70.8499 63.62 70.3806 64.104C69.9259 64.5733 69.2806 64.808 68.4446 64.808C67.9459 64.808 67.5206 64.742 67.1686 64.61C66.8313 64.4927 66.5379 64.3167 66.2886 64.082C65.9659 63.7447 65.7459 63.3413 65.6286 62.872C65.5259 62.4027 65.4746 61.7793 65.4746 61.002V53.588H63.5386V53.148H65.4746V50.09C66.0026 50.0753 66.4939 50.024 66.9486 49.936C67.4033 49.848 67.8359 49.7087 68.2466 49.518ZM82.383 53.126V53.588C82.1043 53.6467 81.8403 53.8007 81.591 54.05C81.3563 54.2993 81.129 54.7393 80.909 55.37L77.653 64.302L76.971 65.336L72.439 54.82C72.1603 54.2627 71.8963 53.918 71.647 53.786C71.3976 53.654 71.1923 53.588 71.031 53.588V53.126C71.4563 53.17 71.8963 53.2067 72.351 53.236C72.8203 53.2507 73.2896 53.258 73.759 53.258C74.3016 53.258 74.8223 53.2433 75.321 53.214C75.8343 53.1847 76.311 53.1553 76.751 53.126V53.588C76.4136 53.588 76.113 53.61 75.849 53.654C75.585 53.698 75.409 53.8227 75.321 54.028C75.2476 54.2187 75.3063 54.556 75.497 55.04L78.247 61.75L78.071 61.838L80.007 56.602C80.2563 55.9127 80.359 55.3553 80.315 54.93C80.271 54.5047 80.1096 54.182 79.831 53.962C79.5523 53.742 79.171 53.6173 78.687 53.588V53.126C78.9216 53.1407 79.1563 53.1553 79.391 53.17C79.6256 53.1847 79.853 53.1993 80.073 53.214C80.293 53.214 80.5056 53.214 80.711 53.214C81.019 53.214 81.3196 53.2067 81.613 53.192C81.921 53.1773 82.1776 53.1553 82.383 53.126ZM77.653 64.302L76.817 66.524C76.685 66.8907 76.5383 67.1987 76.377 67.448C76.2303 67.712 76.0616 67.9247 75.871 68.086C75.651 68.2767 75.3796 68.416 75.057 68.504C74.749 68.592 74.4043 68.636 74.023 68.636C73.6856 68.636 73.3556 68.5773 73.033 68.46C72.725 68.3427 72.461 68.1667 72.241 67.932C72.0356 67.6973 71.933 67.3893 71.933 67.008C71.933 66.5973 72.0723 66.2673 72.351 66.018C72.6296 65.7687 73.011 65.644 73.495 65.644C73.9203 65.644 74.265 65.7467 74.529 65.952C74.8076 66.172 74.947 66.4947 74.947 66.92C74.947 67.1987 74.8663 67.448 74.705 67.668C74.5436 67.888 74.3163 68.0567 74.023 68.174C74.0963 68.1887 74.1623 68.196 74.221 68.196C74.2943 68.2107 74.353 68.218 74.397 68.218C74.8223 68.218 75.2036 68.0787 75.541 67.8C75.8783 67.5213 76.1496 67.0813 76.355 66.48L77.147 64.302H77.653ZM87.1109 52.818C87.7269 52.818 88.2549 52.906 88.6949 53.082C89.1349 53.258 89.4576 53.412 89.6629 53.544C90.1616 53.9107 90.4622 53.676 90.5649 52.84H91.0489C91.0196 53.2653 90.9976 53.7713 90.9829 54.358C90.9682 54.93 90.9609 55.7 90.9609 56.668H90.4769C90.4036 56.1253 90.2642 55.5973 90.0589 55.084C89.8536 54.5707 89.5529 54.1453 89.1569 53.808C88.7609 53.456 88.2402 53.28 87.5949 53.28C87.1402 53.28 86.7589 53.412 86.4509 53.676C86.1576 53.94 86.0109 54.314 86.0109 54.798C86.0109 55.238 86.1429 55.6267 86.4069 55.964C86.6709 56.2867 87.0082 56.5947 87.4189 56.888C87.8442 57.1667 88.2842 57.4747 88.7389 57.812C89.2669 58.164 89.7362 58.5233 90.1469 58.89C90.5576 59.242 90.8876 59.638 91.1369 60.078C91.3862 60.5033 91.5109 61.0093 91.5109 61.596C91.5109 62.2707 91.3202 62.85 90.9389 63.334C90.5722 63.8033 90.0809 64.17 89.4649 64.434C88.8636 64.6833 88.1962 64.808 87.4629 64.808C87.0669 64.808 86.7076 64.7713 86.3849 64.698C86.0622 64.6247 85.7762 64.5293 85.5269 64.412C85.3362 64.3093 85.1602 64.214 84.9989 64.126C84.8522 64.038 84.6982 63.9647 84.5369 63.906C84.3902 63.8327 84.2582 63.862 84.1409 63.994C84.0382 64.126 83.9576 64.346 83.8989 64.654H83.4149C83.4442 64.1847 83.4662 63.6127 83.4809 62.938C83.4956 62.2633 83.5029 61.3687 83.5029 60.254H83.9869C84.0896 61.0607 84.2436 61.772 84.4489 62.388C84.6689 62.9893 84.9842 63.466 85.3949 63.818C85.8056 64.1553 86.3336 64.324 86.9789 64.324C87.2576 64.324 87.5216 64.2653 87.7709 64.148C88.0349 64.0307 88.2476 63.8473 88.4089 63.598C88.5849 63.3487 88.6729 63.0113 88.6729 62.586C88.6729 61.9407 88.4529 61.4053 88.0129 60.98C87.5729 60.5547 87.0229 60.1 86.3629 59.616C85.8642 59.2493 85.3949 58.89 84.9549 58.538C84.5296 58.186 84.1776 57.79 83.8989 57.35C83.6349 56.91 83.5029 56.3893 83.5029 55.788C83.5029 55.128 83.6716 54.5853 84.0089 54.16C84.3462 53.72 84.7862 53.39 85.3289 53.17C85.8862 52.9353 86.4802 52.818 87.1109 52.818ZM97.0776 47.274V55.062C97.4443 54.2407 97.9503 53.6613 98.5956 53.324C99.2556 52.9867 99.9669 52.818 100.73 52.818C101.331 52.818 101.822 52.8987 102.204 53.06C102.585 53.2213 102.893 53.4267 103.128 53.676C103.377 53.9547 103.553 54.314 103.656 54.754C103.773 55.194 103.832 55.788 103.832 56.536V62.454C103.832 63.07 103.942 63.488 104.162 63.708C104.396 63.928 104.785 64.038 105.328 64.038V64.5C105.064 64.4853 104.66 64.4707 104.118 64.456C103.575 64.4267 103.04 64.412 102.512 64.412C101.984 64.412 101.463 64.4267 100.95 64.456C100.436 64.4707 100.048 64.4853 99.7836 64.5V64.038C100.253 64.038 100.583 63.928 100.774 63.708C100.964 63.488 101.06 63.07 101.06 62.454V55.788C101.06 55.392 101.023 55.04 100.95 54.732C100.876 54.4093 100.73 54.16 100.51 53.984C100.304 53.7933 99.9889 53.698 99.5636 53.698C99.0943 53.698 98.6689 53.83 98.2876 54.094C97.9209 54.3433 97.6276 54.7027 97.4076 55.172C97.1876 55.6267 97.0776 56.1473 97.0776 56.734V62.454C97.0776 63.07 97.1729 63.488 97.3636 63.708C97.5689 63.928 97.8989 64.038 98.3536 64.038V64.5C98.1043 64.4853 97.7303 64.4707 97.2316 64.456C96.7476 64.4267 96.2416 64.412 95.7136 64.412C95.1856 64.412 94.6356 64.4267 94.0636 64.456C93.5063 64.4707 93.0883 64.4853 92.8096 64.5V64.038C93.3523 64.038 93.7336 63.928 93.9536 63.708C94.1883 63.488 94.3056 63.07 94.3056 62.454V49.914C94.3056 49.254 94.1956 48.77 93.9756 48.462C93.7703 48.1393 93.3816 47.978 92.8096 47.978V47.516C93.2789 47.56 93.7336 47.582 94.1736 47.582C94.7309 47.582 95.2516 47.56 95.7356 47.516C96.2196 47.4573 96.6669 47.3767 97.0776 47.274ZM109.256 64.654C108.625 64.654 108.09 64.5367 107.65 64.302C107.21 64.0527 106.88 63.7227 106.66 63.312C106.44 62.8867 106.33 62.4173 106.33 61.904C106.33 61.2733 106.477 60.76 106.77 60.364C107.063 59.9533 107.437 59.6307 107.892 59.396C108.361 59.1467 108.853 58.9413 109.366 58.78C109.879 58.604 110.363 58.4427 110.818 58.296C111.273 58.1347 111.647 57.9513 111.94 57.746C112.233 57.5407 112.38 57.2693 112.38 56.932V55.326C112.38 54.8567 112.307 54.4753 112.16 54.182C112.028 53.874 111.823 53.6467 111.544 53.5C111.28 53.3387 110.943 53.258 110.532 53.258C110.224 53.258 109.901 53.302 109.564 53.39C109.227 53.478 108.948 53.6467 108.728 53.896C109.109 53.9987 109.403 54.1893 109.608 54.468C109.828 54.7467 109.938 55.084 109.938 55.48C109.938 55.9347 109.784 56.294 109.476 56.558C109.183 56.8073 108.809 56.932 108.354 56.932C107.87 56.932 107.503 56.778 107.254 56.47C107.005 56.162 106.88 55.8027 106.88 55.392C106.88 54.9813 106.983 54.644 107.188 54.38C107.393 54.1013 107.679 53.852 108.046 53.632C108.413 53.3827 108.882 53.1847 109.454 53.038C110.026 52.8913 110.649 52.818 111.324 52.818C111.969 52.818 112.541 52.8913 113.04 53.038C113.539 53.17 113.964 53.412 114.316 53.764C114.668 54.1013 114.895 54.5193 114.998 55.018C115.101 55.5167 115.152 56.1253 115.152 56.844V62.872C115.152 63.2387 115.196 63.5027 115.284 63.664C115.372 63.8107 115.511 63.884 115.702 63.884C115.849 63.884 115.988 63.8473 116.12 63.774C116.252 63.7007 116.399 63.598 116.56 63.466L116.802 63.84C116.479 64.0893 116.142 64.2873 115.79 64.434C115.438 64.5807 115.013 64.654 114.514 64.654C114.001 64.654 113.59 64.5807 113.282 64.434C112.989 64.2873 112.769 64.0747 112.622 63.796C112.49 63.5173 112.417 63.1873 112.402 62.806C112.05 63.3927 111.617 63.8473 111.104 64.17C110.591 64.4927 109.975 64.654 109.256 64.654ZM110.576 63.422C110.928 63.422 111.251 63.3267 111.544 63.136C111.852 62.9453 112.131 62.6593 112.38 62.278V57.834C112.233 58.054 112.021 58.252 111.742 58.428C111.478 58.604 111.192 58.78 110.884 58.956C110.576 59.132 110.283 59.3373 110.004 59.572C109.74 59.792 109.513 60.0707 109.322 60.408C109.146 60.7307 109.058 61.1487 109.058 61.662C109.058 62.234 109.197 62.674 109.476 62.982C109.755 63.2753 110.121 63.422 110.576 63.422ZM127.822 53.126V53.588C127.544 53.6467 127.28 53.8007 127.03 54.05C126.796 54.2993 126.568 54.7393 126.348 55.37L123.092 64.302L122.41 65.336L117.878 54.82C117.6 54.2627 117.336 53.918 117.086 53.786C116.837 53.654 116.632 53.588 116.47 53.588V53.126C116.896 53.17 117.336 53.2067 117.79 53.236C118.26 53.2507 118.729 53.258 119.198 53.258C119.741 53.258 120.262 53.2433 120.76 53.214C121.274 53.1847 121.75 53.1553 122.19 53.126V53.588C121.853 53.588 121.552 53.61 121.288 53.654C121.024 53.698 120.848 53.8227 120.76 54.028C120.687 54.2187 120.746 54.556 120.936 55.04L123.686 61.75L123.51 61.838L125.446 56.602C125.696 55.9127 125.798 55.3553 125.754 54.93C125.71 54.5047 125.549 54.182 125.27 53.962C124.992 53.742 124.61 53.6173 124.126 53.588V53.126C124.361 53.1407 124.596 53.1553 124.83 53.17C125.065 53.1847 125.292 53.1993 125.512 53.214C125.732 53.214 125.945 53.214 126.15 53.214C126.458 53.214 126.759 53.2067 127.052 53.192C127.36 53.1773 127.617 53.1553 127.822 53.126ZM123.092 64.302L122.256 66.524C122.124 66.8907 121.978 67.1987 121.816 67.448C121.67 67.712 121.501 67.9247 121.31 68.086C121.09 68.2767 120.819 68.416 120.496 68.504C120.188 68.592 119.844 68.636 119.462 68.636C119.125 68.636 118.795 68.5773 118.472 68.46C118.164 68.3427 117.9 68.1667 117.68 67.932C117.475 67.6973 117.372 67.3893 117.372 67.008C117.372 66.5973 117.512 66.2673 117.79 66.018C118.069 65.7687 118.45 65.644 118.934 65.644C119.36 65.644 119.704 65.7467 119.968 65.952C120.247 66.172 120.386 66.4947 120.386 66.92C120.386 67.1987 120.306 67.448 120.144 67.668C119.983 67.888 119.756 68.0567 119.462 68.174C119.536 68.1887 119.602 68.196 119.66 68.196C119.734 68.2107 119.792 68.218 119.836 68.218C120.262 68.218 120.643 68.0787 120.98 67.8C121.318 67.5213 121.589 67.0813 121.794 66.48L122.586 64.302H123.092Z" fill="#3A40D8"/>
</svg>
